<svg width="26" height="26" viewBox="0 0 26 26" fill="none" xmlns="http://www.w3.org/2000/svg">
<path d="M22.75 11.9167V19.5C22.75 20.6967 21.78 21.6667 20.5833 21.6667H5.41667C4.22005 21.6667 3.25 20.6967 3.25 19.5V9.75004C3.25 8.55342 4.22005 7.58337 5.41667 7.58337H7.04167C7.72364 7.58337 8.36581 7.26228 8.775 6.71671L9.9125 5.20004C10.3217 4.65446 10.9639 4.33337 11.6458 4.33337H14.3542" stroke="#8E1515" stroke-width="2.16667" stroke-linecap="round" stroke-linejoin="round"/>
<path d="M20.0413 4.33337V7.04171M20.0413 7.04171V9.75004M20.0413 7.04171H17.333M20.0413 7.04171H22.7497" stroke="#8E1515" stroke-width="2.16667" stroke-linecap="round" stroke-linejoin="round"/>
<path d="M13.0003 18.4167C15.3936 18.4167 17.3337 16.4766 17.3337 14.0833C17.3337 11.6901 15.3936 9.75 13.0003 9.75C10.6071 9.75 8.66699 11.6901 8.66699 14.0833C8.66699 16.4766 10.6071 18.4167 13.0003 18.4167Z" stroke="#8E1515" stroke-width="2.16667" stroke-linecap="round" stroke-linejoin="round"/>
</svg>
